<svg id="Lager_1" data-name="Lager 1" xmlns="http://www.w3.org/2000/svg" viewBox="0 0 116 83.87"><defs><style>.cls-1{fill:#8d8d8d;}</style></defs><title>nevaLogoDark</title><g id="Symbols"><g id="Navbar"><g id="Logo"><g id="_Group_2" data-name=" Group 2"><path id="_Compound_Path_" data-name=" Compound Path " class="cls-1" d="M11.73,81.14v2.63H0V81.14l2.86-.5a1,1,0,0,0,.64-.36,1,1,0,0,0,.21-.69V59.5a1,1,0,0,0-.21-.68,1.13,1.13,0,0,0-.63-.37L0,57.9V55.14H10.85l12,19.53V59.5a1,1,0,0,0-.21-.69,1.06,1.06,0,0,0-.63-.36l-3-.55V55.14H30.22V57.9l-2.66.55a1,1,0,0,0-.84,1V83.77h-6.3L7.55,62.66V79.58a1,1,0,0,0,.23.68.92.92,0,0,0,.62.34Z" transform="translate(0 0)"/><path id="_Compound_Path_2" data-name=" Compound Path 2" class="cls-1" d="M56.8,63H53.53l-1-3.4a1.49,1.49,0,0,0-.4-.74,1.89,1.89,0,0,0-.67-.45,5.9,5.9,0,0,0-1.31-.29A12.71,12.71,0,0,0,48.41,58h-3.1V67.6l7.88-.29v3.76l-7.88-.2v9.92h3.87a16.79,16.79,0,0,0,1.88-.11,6.46,6.46,0,0,0,1.44-.29,1.38,1.38,0,0,0,.6-.44,2.74,2.74,0,0,0,.39-.76l1.57-4.54,3.25.5c0,1.46-.05,2.89-.16,4.28s-.28,2.84-.5,4.33h-23V81.12l2.85-.52a1,1,0,0,0,.63-.34,1,1,0,0,0,.22-.68V59.5a1,1,0,0,0-.22-.68,1.05,1.05,0,0,0-.63-.37l-2.86-.55V55.14h22A35.93,35.93,0,0,1,56.94,59C57,60.32,56.91,61.64,56.8,63Z" transform="translate(0 0)"/><path id="_Compound_Path_3" data-name=" Compound Path 3" class="cls-1" d="M79.78,83.87h-6.2l-9-24.53a1.26,1.26,0,0,0-.37-.58,1.67,1.67,0,0,0-.59-.31l-2.34-.55V55.14H75.11V57.9l-3.54.67L78.18,78l5.93-19.45-3.54-.67V55.12H91.26v2.76l-2.5.55a1.61,1.61,0,0,0-.61.31,1.3,1.3,0,0,0-.36.58Z" transform="translate(0 0)"/><path id="_Compound_Path_4" data-name=" Compound Path 4" class="cls-1" d="M96.5,81.14v2.63H85.81V81.14l2.5-.61a1.22,1.22,0,0,0,.94-.88l8.35-24.6h6.5l8.4,24.6a1.22,1.22,0,0,0,.38.57,1.59,1.59,0,0,0,.59.31l2.29.61v2.63H102V81.14l3.5-.57-1.6-5.17H94.59L93,80.57Zm6.43-8.88L99.18,60.2,95.53,72.26Z" transform="translate(0 0)"/></g><g id="Group-11"><path id="Shape" class="cls-1" d="M94.29,35H86.73a.76.76,0,0,0-.73.77v9.48a.76.76,0,0,0,.73.75h7.56a.74.74,0,0,0,.51-.2v0h0a.7.7,0,0,0,.2-.51v-9.5a.75.75,0,0,0-.71-.77Zm-.74,9.51H87.48v-8h6.09Z" transform="translate(0 0)"/><path id="Shape-2" data-name="Shape" class="cls-1" d="M55.23,35H50.8a.77.77,0,0,0-.8.69v5.62a.77.77,0,0,0,.8.69h4.43a.79.79,0,0,0,.55-.18h0a.59.59,0,0,0,.22-.48V35.69A.76.76,0,0,0,55.23,35Zm-.8,5.62H51.61V36.38h2.82Z" transform="translate(0 0)"/><path id="Shape-3" data-name="Shape" class="cls-1" d="M37.61,35.27C30.13,32.1,26.4,22.56,23.87,15.5A101.55,101.55,0,0,1,19.72.65a.64.64,0,0,0-.13-.37A.61.61,0,0,0,19,0a.61.61,0,0,0-.61.26.65.65,0,0,0-.13.38A100.66,100.66,0,0,1,14.09,15.5C12.16,20.87,9.55,27.68,5.1,32L5,32.14A15.11,15.11,0,0,1,.37,35.27a.73.73,0,0,0-.37.64v5a.76.76,0,0,0,.29.57.75.75,0,0,0,.63.14l.93-.19v5.85A.75.75,0,0,0,2.6,48a.74.74,0,0,0,.74-.74V41.11l7.46-1.5c2.3-.46,5.41-.22,8.18-.22s5.86-.25,8,.19l7.71,1.55V47.2a.74.74,0,0,0,1.48,0V41.42l.87.18a.78.78,0,0,0,.64-.13.75.75,0,0,0,.29-.58v-5A.71.71,0,0,0,37.61,35.27Zm-2,.5c-2.77-.63-5.56-1.27-8.31-1.88-.9-.2-.59-.09-.87-.42a7.49,7.49,0,0,1-1-1.84l6.78,1.66h0A20,20,0,0,0,34,34.84,12.81,12.81,0,0,0,35.56,35.77ZM30.4,31.35,24.66,30A38.49,38.49,0,0,1,23.42,26l4,1.23.17,0a33.63,33.63,0,0,0,2.82,4.08ZM17.9,17.29h2.17c.25,1.52.53,3,.85,4.52H17c.32-1.51.6-3,.86-4.53Zm.24-1.47q.51-3.18.84-6.37c.23,2.12.51,4.25.84,6.37Zm-2,9.74c.19-.76.37-1.5.54-2.29h4.55c.15.68.3,1.36.47,2s.29,1.25.5,2H15.75C15.92,26.66,16.05,26.06,16.18,25.56ZM23,24.32c0-.15-.07-.31-.11-.47-.3-1.25-.56-2.54-.8-3.82l2.1.73.19,0c.66,1.55,1.38,3.11,2.18,4.62Zm-1.23-5.95c-.12-.61-.21-1.21-.31-1.82a.93.93,0,0,0-.05-.29c-.33-2-.61-3.94-.83-5.93.88,2.95,1.9,5.85,3,8.68Zm-5.56,0L14.35,19a90.74,90.74,0,0,0,3-8.67q-.46,4.06-1.18,8.07Zm-2.6,2.4L15.89,20c-.28,1.38-.56,2.74-.87,4.08a.65.65,0,0,1,0,.2l-3.58,1.18c.8-1.53,1.53-3.12,2.21-4.7ZM10.36,27.3a.85.85,0,0,0,.32,0L14.55,26a39.75,39.75,0,0,1-1.21,3.84h-.09l-5.68,1.5a31.6,31.6,0,0,0,2.78-4Zm5.05,1.5h7.18a16.89,16.89,0,0,0,2,4.84H13.36a16.61,16.61,0,0,0,2-4.84ZM1.48,36.38c.69-.6,1.78-1,2.53-1.53a20.55,20.55,0,0,0,1.73-1.51h0l6.88-1.79a8.27,8.27,0,0,1-1.07,1.93c-.24.3,0,.24-.82.46L1.47,36.6v-.45C1.46,35.83,1.47,35.91,1.48,36.38ZM19,37.93c-2.66,0-5.51-.32-8.14.18-3.13.6-6.25,1.25-9.37,1.88V38.16c3.32-.91,7-1.54,10.15-2.92.05,0,.11-.07.16-.1h14.4s.06,0,.1.06c1.75.76,4.08.92,5.94,1.35l4.27,1V40c-3.08-.62-6.16-1.25-9.24-1.85-2.67-.57-5.56-.25-8.27-.25Z" transform="translate(0 0)"/><path id="Path" class="cls-1" d="M11,42.71v4.58A.94.94,0,0,0,12,48a.94.94,0,0,0,1-.71V42.71A.94.94,0,0,0,12,42a.94.94,0,0,0-1,.71Z" transform="translate(0 0)"/><path id="Path-2" data-name="Path" class="cls-1" d="M25,42.76v4.48a1,1,0,0,0,2,0V42.76a1,1,0,0,0-2,0Z" transform="translate(0 0)"/><path id="Path-3" data-name="Path" class="cls-1" d="M79.8,29.66a.76.76,0,0,0,.15-.79.73.73,0,0,0-.65-.46H72.11V25.73a.74.74,0,0,0-.73-.73H67.21a.73.73,0,0,0-.72.73v2.64H61.65V25.73a.75.75,0,0,0-.71-.73H58.05a.75.75,0,0,0-.74.73v3.41a.73.73,0,0,0,.73.67.74.74,0,0,0,.74-.67V26.47H60.2V29.1a.74.74,0,0,0,.74.73h6.29a.74.74,0,0,0,.7-.73V26.47h2.7v2.67a.73.73,0,0,0,.73.73h6.16l-9.37,9.41-6.08,6.11c-.33.33-.69.82-1.08,1.15.09-.14-.43,0-.89,0l-1.32-.06.06-11.6,1.76,1.75a.67.67,0,0,0,.93,0,.68.68,0,0,0,0-.93L53,27.14a.69.69,0,0,0-1,0l-8.48,8.54c-.62.62.34,1.58,1,1L46.09,35V46.42H39.52v-2h1a.73.73,0,0,0,.73-.73V34.83a.71.71,0,0,0-.36-.64,19.71,19.71,0,0,1-6.68-4.82H47.11a.73.73,0,1,0,0-1.46H32.73a.71.71,0,0,0-.63.37.73.73,0,0,0,0,.73,16.52,16.52,0,0,0,2.53,2.82A20.08,20.08,0,0,0,37.41,34c.63.41,1.41.71,2,1.14a1.51,1.51,0,0,0,.37.22v7.59h-1a.74.74,0,0,0-.74.73v3.5a.74.74,0,0,0,.74.73h8.06a.75.75,0,0,0,.74-.73V33.57l4.94-5,4.92,4.88a.77.77,0,0,0-.06.3l-.06,13.38a.75.75,0,0,0,.73.73c1.9.09,3.11.5,4.45-.83l6-6Z" transform="translate(0 0)"/><path id="Path-4" data-name="Path" class="cls-1" d="M115.78,46.64,90.86,22.21a.75.75,0,0,0-1,0L65.22,46.75a.73.73,0,0,0,1,1L72,42.11V47.2a.75.75,0,0,0,.75.75.76.76,0,0,0,.76-.75V40.87a.78.78,0,0,0,0-.22l16.93-16.9,17.19,16.9a1,1,0,0,0,0,.24v6.33a.76.76,0,0,0,.76.75.75.75,0,0,0,.75-.75V42.07l5.71,5.61C115.42,48.35,116.46,47.31,115.78,46.64Z" transform="translate(0 0)"/></g></g></g></g></svg>