<?xml version="1.0" encoding="UTF-8"?>
<svg width="116px" height="84px" viewBox="0 0 116 84" version="1.1" xmlns="http://www.w3.org/2000/svg" xmlns:xlink="http://www.w3.org/1999/xlink">
    <!-- Generator: Sketch 59.1 (86144) - https://sketch.com -->
    <title>Logo</title>
    <desc>Created with Sketch.</desc>
    <g id="Symbols" stroke="none" stroke-width="1" fill="none" fill-rule="evenodd">
        <g id="Navbar" transform="translate(-902.000000, -17.000000)" fill="#FFFFFF" fill-rule="nonzero">
            <g id="Logo">
                <g transform="translate(902.000000, 17.000000)">
                    <g id="_Group_2" transform="translate(0.000000, 55.000000)">
                        <path d="M11.735,26.135 L11.735,28.775 L0,28.775 L0,26.135 L2.86,25.635 C3.1097927,25.6030787 3.33834572,25.4780887 3.5,25.285 C3.64627167,25.0854944 3.720328,24.8421664 3.71,24.595 L3.71,4.5 C3.72120986,4.25426633 3.64700856,4.01222876 3.5,3.815 C3.3357377,3.62590485 3.11161113,3.49884096 2.865,3.455 L0,2.905 L0,0.14 L10.855,0.14 L22.855,19.665 L22.855,4.5 C22.863605,4.24994994 22.7859249,4.00455136 22.635,3.805 C22.4770337,3.61515854 22.2544051,3.49048653 22.01,3.455 L19,2.905 L19,0.14 L30.215,0.14 L30.215,2.905 L27.555,3.455 C27.0483692,3.53624426 26.6854374,3.98774864 26.715,4.5 L26.715,28.775 L20.425,28.775 L7.555,7.655 L7.555,24.575 C7.53954643,24.824409 7.61803137,25.0705662 7.775,25.265 C7.93336359,25.4500574 8.15382338,25.5709547 8.395,25.605 L11.735,26.135 Z" id="_Compound_Path_"></path>
                        <path d="M56.8,7.965 L53.535,7.965 L52.535,4.575 C52.4707746,4.29279958 52.3307426,4.0334811 52.13,3.825 C51.9371799,3.63405962 51.70752,3.48435539 51.455,3.385 C51.0335149,3.23430793 50.5953202,3.13525243 50.15,3.09 C49.5730848,3.01474996 48.9917987,2.97800199 48.41,2.98 L45.31,2.98 L45.31,12.605 L53.195,12.31 L53.195,16.07 L45.31,15.87 L45.31,25.79 L49.18,25.79 C49.8081725,25.7866544 50.4357237,25.749936 51.06,25.68 C51.5500811,25.6396844 52.0335447,25.5406415 52.5,25.385 C52.735558,25.2965842 52.9440558,25.1483957 53.105,24.955 C53.2672938,24.7185578 53.396805,24.4612173 53.49,24.19 L55.065,19.645 L58.31,20.145 C58.31,21.6116667 58.255,23.0416667 58.145,24.435 C58.035,25.8283333 57.8683333,27.27 57.645,28.76 L34.645,28.76 L34.645,26.12 L37.5,25.605 C37.746552,25.574479 37.9729156,25.4532765 38.135,25.265 C38.2827439,25.0662343 38.3569628,24.8223722 38.345,24.575 L38.345,4.5 C38.3562099,4.25426633 38.2820086,4.01222876 38.135,3.815 C37.9715302,3.62493853 37.7470333,3.49766472 37.5,3.455 L34.64,2.905 L34.64,0.14 L56.68,0.14 C56.8377708,1.42584657 56.922906,2.71956695 56.935,4.015 C56.955,5.315 56.91,6.635 56.8,7.965 Z" id="_Compound_Path_2"></path>
                        <path d="M79.78,28.87 L73.585,28.87 L64.585,4.335 C64.5144566,4.11287306 64.3848308,3.91411345 64.21,3.76 C64.0359536,3.61665854 63.8329888,3.51261778 63.615,3.455 L61.285,2.905 L61.285,0.14 L75.11,0.14 L75.11,2.905 L71.57,3.565 L78.185,23 L84.11,3.545 L80.57,2.885 L80.57,0.12 L91.26,0.12 L91.26,2.885 L88.76,3.435 C88.5373354,3.48817102 88.3301665,3.59261154 88.155,3.74 C87.9847663,3.89613431 87.8588439,4.09450525 87.79,4.315 L79.78,28.87 Z" id="_Compound_Path_3"></path>
                        <path d="M96.5,26.135 L96.5,28.775 L85.805,28.775 L85.805,26.135 L88.305,25.53 C88.52543,25.4816953 88.7300911,25.3785048 88.9,25.23 C89.0637206,25.0683979 89.1855725,24.869316 89.255,24.65 L97.6,0.045 L104.1,0.045 L112.5,24.65 C112.56924,24.8713283 112.699158,25.0688046 112.875,25.22 C113.051133,25.3612786 113.253289,25.4666037 113.47,25.53 L115.765,26.135 L115.765,28.775 L102,28.775 L102,26.135 L105.5,25.57 L103.905,20.395 L94.59,20.395 L93,25.57 L96.5,26.135 Z M102.935,17.26 L99.175,5.2 L95.525,17.26 L102.935,17.26 Z" id="_Compound_Path_4"></path>
                    </g>
                    <g id="Group-11">
                        <path d="M94.2937896,35 L86.7312102,35 C86.3182741,35.0110776 85.9916972,35.3557493 86.0001609,35.7715549 L86.0001609,45.2535585 C86.0054292,45.6595156 86.3281062,45.9888688 86.7312102,45.9997333 L94.2937896,45.9997333 C94.4814949,46.0049466 94.6633236,45.933551 94.7979615,45.8017685 L94.7979615,45.7763884 L94.7979615,45.7763884 C94.9327369,45.6430303 95.0058766,45.4589371 94.9996303,45.2687865 L94.9996303,35.7715549 C95.0111531,35.3641908 94.6979822,35.0218634 94.2937896,35 L94.2937896,35 Z M93.5526568,44.5073837 L87.4773847,44.5073837 L87.4773847,36.4872736 L93.5677819,36.4872736 L93.5526568,44.5073837 Z" id="Shape"></path>
                        <path d="M55.2332265,35 L50.8046907,35 C50.3639391,35.0075123 50.0087303,35.3131653 50,35.6924268 L50,41.307207 C50.0058935,41.6875033 50.3627365,41.9945624 50.8046907,41.9996337 L55.2332265,41.9996337 C55.4372487,42.0055691 55.6351528,41.9391544 55.7806352,41.8159287 L55.7806352,41.8159287 L55.7806352,41.8159287 C55.9269685,41.6921765 56.0063805,41.5213438 55.9995986,41.3448901 L55.9995986,35.6924268 C55.9946368,35.324415 55.660154,35.0222056 55.2332265,35 Z M54.4285358,40.6194906 L51.6093814,40.6194906 L51.6093814,36.3801431 L54.4285358,36.3801431 L54.4285358,40.6194906 Z" id="Shape"></path>
                        <path d="M37.6110605,35.2688894 C30.1252371,32.1011722 26.3974789,22.5578594 23.8718975,15.504543 C22.1137965,10.6655868 20.7258326,5.70160481 19.7198417,0.654927422 C19.7207136,0.518183888 19.6743564,0.385282066 19.5885114,0.278415871 C19.4570193,0.0782204085 19.2203376,-0.0276325246 18.9823719,0.00732755337 C18.7439414,-0.0294604075 18.5056426,0.074277629 18.3711812,0.273395717 C18.2892121,0.382016896 18.2449021,0.514130794 18.2449021,0.649907268 C17.2365303,5.69602205 15.8486157,10.6598278 14.0928463,15.4995229 C12.163302,20.8710877 9.54679969,27.6834367 5.09672523,32.0308901 C5.05557349,32.0650981 5.01676187,32.1019943 4.98054848,32.1413335 C3.64947549,33.4563176 2.0861815,34.5165073 0.368836805,35.2688894 C0.138220476,35.39876 -0.0030540611,35.6430302 5.01242658e-05,35.906449 L5.01242658e-05,40.8864418 C0.00661084378,41.111435 0.114048326,41.3217375 0.292975933,41.4597251 C0.471903541,41.5977128 0.703557977,41.6489156 0.924464718,41.5993036 L1.85387868,41.4085378 L1.85387868,47.2620374 C1.85387869,47.6696029 2.18631664,48 2.59639962,48 C3.0064826,48 3.33892055,47.6696029 3.33892056,47.2620374 L3.33892056,41.1123487 L10.8045392,39.6063025 C13.0977672,39.1494685 16.2143346,39.3904359 18.9823719,39.3904359 C21.6392835,39.3904359 24.8366696,39.1444483 27.0086696,39.5761816 L34.7167442,41.1274092 L34.7167442,47.1967754 C34.7167442,47.6043409 35.0491821,47.934738 35.4592651,47.934738 C35.8693481,47.934738 36.201786,47.6043409 36.201786,47.1967754 L36.201786,41.4235982 L37.0655349,41.5993036 C37.2880979,41.6544151 37.5238001,41.6056512 37.705748,41.4668512 C37.8876959,41.3280512 37.9960283,41.1143665 38,40.8864418 L38,35.906449 C37.9980174,35.6390622 37.84869,35.3942807 37.6110605,35.2688894 Z M35.5602883,35.7709048 C32.7922511,35.1383654 30.0040092,34.4957857 27.2511255,33.8883471 C26.3469673,33.692561 26.6601394,33.7979843 26.3823255,33.4666541 C25.9615428,32.9054931 25.6215264,32.2887725 25.3720929,31.6342979 L32.1457023,33.2859286 L32.1911627,33.2859286 C32.7472213,33.8427047 33.3394826,34.3625734 33.9641209,34.8421763 C34.4724919,35.1903127 35.0059934,35.50073 35.5602883,35.7709048 Z M30.4030511,31.3481491 L24.6598789,29.9525463 C24.1767372,28.6567773 23.7636362,27.3362661 23.422344,25.9966649 L27.4127627,27.2316228 C27.4682784,27.2505263 27.5259881,27.2623348 27.5845022,27.2667639 C28.418683,28.6961916 29.3609098,30.0605783 30.4030511,31.3481491 L30.4030511,31.3481491 Z M17.901423,17.2917179 L20.0683719,17.2917179 C20.32093,18.8078044 20.6037952,20.3138506 20.9169673,21.8098565 L17.0376742,21.8098565 C17.3609486,20.2987901 17.6438137,18.7927439 17.901423,17.2766574 L17.901423,17.2917179 Z M18.1438789,15.8208127 C18.480623,13.7023077 18.7601207,11.5771092 18.9823719,9.44521712 C19.2147254,11.5737624 19.4942231,13.698961 19.8208649,15.8208127 L18.1438789,15.8208127 Z M16.1789765,25.5649317 C16.3709207,24.8018683 16.5477114,24.0588855 16.7194509,23.2707213 L21.2654975,23.2707213 C21.4170324,23.9484421 21.5685673,24.6261629 21.7352556,25.2787829 C21.871637,25.8259797 22.0332742,26.5288013 22.2403719,27.2868445 L15.7546788,27.2868445 C15.916316,26.6643454 16.0526974,26.0619269 16.1789765,25.5649317 Z M23.0030975,24.3249536 C22.9677394,24.1693289 22.9273301,24.0086839 22.8919719,23.8530592 C22.5939533,22.5980207 22.3312929,21.3128612 22.088837,20.032722 L24.1901208,20.7606443 C24.2507845,20.7806703 24.3134445,20.7941353 24.3770138,20.8008055 C25.0437673,22.3520331 25.7610324,23.9082809 26.5591162,25.4243674 L23.0030975,24.3249536 Z M21.7655626,18.3660308 C21.654437,17.7636123 21.5584649,17.1561737 21.4574417,16.5537552 C21.457279,16.4533215 21.4419549,16.3534804 21.4119812,16.2575661 C21.075237,14.2896657 20.7991068,12.3150718 20.5835905,10.3337844 C21.4624928,13.2755946 22.4828277,16.1822638 23.6142882,19.0136307 L21.7655626,18.3660308 Z M16.2092835,18.3660308 L14.3504556,18.9784896 C15.4970695,16.1471227 16.5174044,13.2504939 17.3811533,10.3086836 C17.0679812,13.0195668 16.6840928,15.7103693 16.1991812,18.3760711 L16.2092835,18.3660308 Z M13.6079346,20.7706846 L15.8910602,20.0226816 C15.6132463,21.403224 15.3303812,22.7636857 15.0172091,24.1040669 C15.0172091,24.1693289 14.9869021,24.239611 14.9666974,24.304873 L11.385423,25.4795891 C12.1885579,23.9484421 12.9209765,22.3620734 13.5978323,20.7807249 L13.6079346,20.7706846 Z M10.3600369,27.2968848 C10.4677968,27.3072007 10.5765147,27.29348 10.6782602,27.2567236 L14.5474509,25.9916448 C14.2098681,27.2915921 13.8052407,28.5734244 13.3351718,29.8320626 L13.2493021,29.8320626 L7.57179502,31.3330887 C8.59932659,30.0648302 9.52806493,28.7205529 10.3499346,27.3119453 L10.3600369,27.2968848 Z M15.4111998,28.802931 L22.5939533,28.802931 C23.0061047,30.5119848 23.6880429,32.1453669 24.6144185,33.6423595 L13.3553765,33.6423595 C14.284934,32.1451847 14.9670714,30.5096309 15.3758416,28.7979109 L15.4111998,28.802931 Z M1.48009263,36.3833636 C2.17210194,35.775925 3.26315312,35.419494 4.00567405,34.8471965 C4.61306105,34.380172 5.19162281,33.8772478 5.73822291,33.3411503 L5.73822291,33.3411503 L12.6229579,31.5539754 C12.3523627,32.2403296 11.9923424,32.8884386 11.5521113,33.4817146 C11.3147067,33.7779037 11.5218044,33.7176618 10.733823,33.9435688 L1.46999031,36.5992302 L1.46999031,36.1524365 C1.46493914,35.8311467 1.46999031,35.9114691 1.48009263,36.3833636 Z M18.9823719,37.929571 C16.3204091,37.929571 13.4715532,37.6082812 10.8449485,38.1102966 C7.71322758,38.7076949 4.59160894,39.3552948 1.46999031,39.9878342 L1.46999031,38.1604981 C4.79365546,37.2518503 8.50626015,36.6193108 11.6177765,35.2387685 C11.6733393,35.2387685 11.728902,35.1735065 11.7844648,35.1433856 L26.1802789,35.1433856 C26.2105859,35.1433856 26.2408929,35.1835468 26.276251,35.1986073 C28.0290045,35.9616707 30.3575906,36.1223156 32.2214697,36.5490287 L36.4947535,37.5179184 L36.4947535,40.0279954 C33.4135441,39.4105165 30.3323348,38.7829972 27.2511255,38.1755586 C24.5790603,37.6082812 21.6897952,37.929571 18.9823719,37.929571 L18.9823719,37.929571 Z" id="Shape"></path>
                        <path d="M11,42.7100682 L11,47.2899318 C11.0430263,47.6912171 11.47789,48 12,48 C12.52211,48 12.9569737,47.6912171 13,47.2899318 L13,42.7100682 C12.9569737,42.3087829 12.52211,42 12,42 C11.47789,42 11.0430263,42.3087829 11,42.7100682 L11,42.7100682 Z" id="Path"></path>
                        <path d="M25,42.757732 L25,47.242268 C25,47.6607518 25.4477153,48 26,48 C26.5522847,48 27,47.6607518 27,47.242268 L27,42.757732 C27,42.3392482 26.5522847,42 26,42 C25.4477153,42 25,42.3392482 25,42.757732 Z" id="Path"></path>
                        <path d="M79.7972119,29.6593958 C79.9957645,29.4488605 80.0542489,29.1422834 79.9471484,28.8734238 C79.8400479,28.6045641 79.5867944,28.4222027 79.297882,28.4059035 L72.1125241,28.4059035 L72.1125241,25.734117 C72.1072186,25.3328294 71.7846888,25.0080452 71.3835024,25 L67.2140974,25 C66.8117964,25.0054288 66.4877576,25.3317324 66.4850757,25.734117 L66.4850757,28.3659515 L61.6515619,28.3659515 L61.6515619,25.734117 C61.6440955,25.339484 61.3317422,25.0183489 60.93752,25 L58.0463997,25 C57.6432621,25.0053766 57.3177605,25.3309235 57.3123847,25.734117 L57.3123847,29.1400205 C57.3438592,29.5207074 57.66197,29.8136401 58.043903,29.8136401 C58.4258361,29.8136401 58.7439469,29.5207074 58.7754214,29.1400205 L58.7754214,26.468234 L60.203505,26.468234 L60.203505,29.1000686 C60.2088809,29.5032621 60.5343825,29.8288089 60.93752,29.8341856 L67.2340706,29.8341856 C67.6215347,29.8081432 67.9238006,29.4884363 67.9281392,29.1000686 L67.9281392,26.468234 L70.6295142,26.468234 L70.6295142,29.1400205 C70.6348901,29.5432141 70.9603917,29.8687609 71.3635292,29.8741375 L77.5152741,29.8741375 L68.1528377,39.277827 C66.1255581,41.3053883 64.0966141,43.341273 62.0660057,45.3854809 C61.7364479,45.7200785 61.3769304,46.2094898 60.987453,46.5390934 C61.0823257,46.4042556 60.5580293,46.5390934 60.0986457,46.4991414 L58.7804147,46.4392135 C58.8003879,42.5738626 58.8186967,38.7085118 58.835341,34.8431609 L60.5979757,36.5910586 C60.8667196,36.8299263 61.2750448,36.8179047 61.5292743,36.5636399 C61.7835038,36.3093751 61.7955237,35.9009931 61.5566892,35.6322119 L52.9831941,27.1424232 C52.7170717,26.8810006 52.290603,26.8810006 52.0244806,27.1424232 L43.5358716,35.6771578 C42.9216957,36.301407 43.8804092,37.2602537 44.4945851,36.6360045 L46.0874476,35.0329327 L46.0874476,46.4192375 L39.5162655,46.4192375 L39.5162655,44.4216402 L40.5398919,44.4216402 C40.9422206,44.4189579 41.2684789,44.0948741 41.2739069,43.6925172 L41.2739069,34.8281789 C41.2770268,34.5661329 41.1373706,34.3231356 40.9093961,34.1939418 C38.3688865,33.0743045 36.0925122,31.4322967 34.2283615,29.3747382 L47.111074,29.3747382 C47.5164592,29.3747382 47.8450889,29.0460628 47.8450889,28.6406212 C47.8450889,28.2351795 47.5164592,27.9065042 47.111074,27.9065041 L32.7253783,27.9065041 C32.4648342,27.911311 32.2260796,28.053002 32.0970122,28.2794136 C31.9679448,28.5058252 31.9676448,28.7834866 32.0962226,29.0101767 C32.8328474,30.0417047 33.6819382,30.9880616 34.6278254,31.8317829 C35.4933152,32.6270209 36.4236307,33.3486585 37.4090932,33.9891881 C38.0382489,34.3986955 38.8221969,34.6983351 39.406413,35.1328125 C39.5199855,35.219763 39.6441487,35.2919219 39.7759171,35.3475542 L39.7759171,42.9384242 L38.7772572,42.9384242 C38.3741197,42.9438008 38.0486181,43.2693476 38.0432422,43.6725412 L38.0432422,47.1683365 C38.0486181,47.5715301 38.3741197,47.8970769 38.7772572,47.9024536 L46.8414358,47.9024536 C47.2445733,47.8970769 47.5700749,47.5715301 47.5754508,47.1683365 L47.5754508,33.6845545 C47.5782136,33.647984 47.5782136,33.6112571 47.5754508,33.5746866 L52.5238105,28.5806932 L57.4422104,33.4598248 C57.4009418,33.5544184 57.378877,33.6562702 57.3772976,33.7594644 L57.317378,47.1383726 C57.3253415,47.540469 57.6493525,47.864525 58.051393,47.8724896 C59.9538401,47.9573875 61.1622185,48.3718889 62.4954295,47.0384927 L68.4873888,41.0057487 L79.7972119,29.6593958 Z" id="Path"></path>
                        <path d="M115.780286,46.6351405 L90.8633332,22.2084465 C90.5724614,21.9305178 90.1113806,21.9305178 89.8205088,22.2084465 L65.2159,46.7497964 C64.5458727,47.4177917 65.5886971,48.4546799 66.2587243,47.7816996 L71.946399,42.1137096 L71.946399,47.1984499 C71.946399,47.6114241 72.2847239,47.9462059 72.7020688,47.9462059 C73.1194138,47.9462059 73.4577387,47.6114241 73.4577387,47.1984499 L73.4577387,40.8674497 C73.4559226,40.7934521 73.4457845,40.7198849 73.4275119,40.6481079 L90.3595533,23.7488237 L107.548522,40.653093 C107.525869,40.7292013 107.514001,40.8080525 107.513258,40.8873898 L107.513258,47.2183901 C107.513258,47.6313643 107.851583,47.966146 108.268928,47.966146 C108.686273,47.966146 109.024598,47.6313643 109.024598,47.2183901 L109.024598,42.0688442 L114.732423,47.6819988 C115.422602,48.345009 116.455351,47.3131058 115.780286,46.6351405 Z" id="Path"></path>
                    </g>
                </g>
            </g>
        </g>
    </g>
</svg>